<svg width="50" height="55" viewBox="0 0 50 55" fill="none" xmlns="http://www.w3.org/2000/svg">
<path d="M25 0.116455C11.2 0.116455 0 12.3741 0 27.4772C0 42.5803 11.2 54.8379 25 54.8379C38.8 54.8379 50 42.5803 50 27.4772C50 12.3741 38.8 0.116455 25 0.116455ZM25 11.0608C29.825 11.0608 33.75 15.3564 33.75 20.637C33.75 25.9176 29.825 30.2133 25 30.2133C20.175 30.2133 16.25 25.9176 16.25 20.637C16.25 15.3564 20.175 11.0608 25 11.0608ZM25 49.3658C19.925 49.3658 13.925 47.1222 9.65 41.4859C14.029 37.7258 19.4341 35.6821 25 35.6821C30.5659 35.6821 35.971 37.7258 40.35 41.4859C36.075 47.1222 30.075 49.3658 25 49.3658Z" fill="white"/>
</svg>
