<svg width="45" height="50" viewBox="0 0 45 50" fill='#3A204D' xmlns="http://www.w3.org/2000/svg">
<path d="M27 8.13953C27 6.90597 26.5259 5.72293 25.682 4.85067C24.8381 3.9784 23.6935 3.48837 22.5 3.48837C21.3065 3.48837 20.1619 3.9784 19.318 4.85067C18.4741 5.72293 18 6.90597 18 8.13953H27ZM14.625 8.13953C14.625 7.07064 14.8287 6.0122 15.2244 5.02467C15.6202 4.03714 16.2003 3.13984 16.9315 2.38401C17.6628 1.62819 18.5309 1.02864 19.4864 0.619585C20.4418 0.210535 21.4658 0 22.5 0C23.5342 0 24.5582 0.210535 25.5136 0.619585C26.4691 1.02864 27.3372 1.62819 28.0685 2.38401C28.7997 3.13984 29.3798 4.03714 29.7756 5.02467C30.1713 6.0122 30.375 7.07064 30.375 8.13953H43.3125C43.7601 8.13953 44.1893 8.3233 44.5057 8.65039C44.8222 8.97749 45 9.42113 45 9.88372C45 10.3463 44.8222 10.7899 44.5057 11.117C44.1893 11.4441 43.7601 11.6279 43.3125 11.6279H40.3425L39.213 23.7093C36.1312 22.1003 32.598 21.6702 29.2389 22.495C25.8797 23.3198 22.9112 25.3464 20.8588 28.2161C18.8063 31.0857 17.8023 34.6133 18.0245 38.1745C18.2466 41.7358 19.6805 45.1009 22.0725 47.6744H15.6938C13.5964 47.6747 11.5742 46.8675 10.0214 45.4104C8.46854 43.9533 7.4964 41.9507 7.2945 39.793L4.6575 11.6279H1.6875C1.23995 11.6279 0.810725 11.4441 0.494257 11.117C0.177789 10.7899 0 10.3463 0 9.88372C0 9.42113 0.177789 8.97749 0.494257 8.65039C0.810725 8.3233 1.23995 8.13953 1.6875 8.13953H14.625ZM45 37.2093C45 40.6016 43.6962 43.855 41.3754 46.2537C39.0547 48.6524 35.9071 50 32.625 50C29.3429 50 26.1953 48.6524 23.8746 46.2537C21.5538 43.855 20.25 40.6016 20.25 37.2093C20.25 33.817 21.5538 30.5636 23.8746 28.1649C26.1953 25.7662 29.3429 24.4186 32.625 24.4186C35.9071 24.4186 39.0547 25.7662 41.3754 28.1649C43.6962 30.5636 45 33.817 45 37.2093ZM28.9215 31.7349C28.7103 31.5165 28.4237 31.3939 28.125 31.3939C27.8263 31.3939 27.5397 31.5165 27.3285 31.7349C27.1173 31.9532 26.9986 32.2494 26.9986 32.5581C26.9986 32.8669 27.1173 33.1631 27.3285 33.3814L31.0343 37.2093L27.3285 41.0372C27.1173 41.2556 26.9986 41.5517 26.9986 41.8605C26.9986 42.1692 27.1173 42.4654 27.3285 42.6837C27.5397 42.9021 27.8263 43.0247 28.125 43.0247C28.4237 43.0247 28.7103 42.9021 28.9215 42.6837L32.625 38.8535L36.3285 42.6837C36.4331 42.7918 36.5573 42.8776 36.6939 42.9361C36.8306 42.9946 36.9771 43.0247 37.125 43.0247C37.2729 43.0247 37.4194 42.9946 37.5561 42.9361C37.6927 42.8776 37.8169 42.7918 37.9215 42.6837C38.0261 42.5756 38.1091 42.4473 38.1657 42.306C38.2223 42.1648 38.2514 42.0134 38.2514 41.8605C38.2514 41.7076 38.2223 41.5562 38.1657 41.4149C38.1091 41.2737 38.0261 41.1453 37.9215 41.0372L34.2158 37.2093L37.9215 33.3814C38.1327 33.1631 38.2514 32.8669 38.2514 32.5581C38.2514 32.2494 38.1327 31.9532 37.9215 31.7349C37.7103 31.5165 37.4237 31.3939 37.125 31.3939C36.8263 31.3939 36.5397 31.5165 36.3285 31.7349L32.625 35.5651L28.9215 31.7349Z"/>
</svg>
