<svg xmlns="http://www.w3.org/2000/svg" class="w-10 h-12 2xl:w-12 2xl:h-14" viewBox="0 0 110 114">
    <path
        d="M106.034,157.2A175.713,175.713,0,0,0,73.783,136.52a.963.963,0,0,1-.548-.9v-10.7a25,25,0,0,0,3.125-8.57c1.192-.1,2.771-1.772,4.479-7.765,2.191-7.7.161-9.247-1.837-9.247a14.4,14.4,0,0,0,.451-1.965C83,76.141,72.526,75.4,72.526,75.4a16.343,16.343,0,0,0-6.283-5.864A21.279,21.279,0,0,0,53.323,66.8a20.58,20.58,0,0,0-5.155.967h0a22.962,22.962,0,0,0-5.671,2.9A29.635,29.635,0,0,0,36.666,75.5a22.662,22.662,0,0,0-6.251,21.845h0c.129.644.29,1.321.451,1.965-1.965.032-3.9,1.643-1.74,9.215,1.708,5.993,3.286,7.668,4.479,7.765a25.482,25.482,0,0,0,3.125,8.57v10.7a1.019,1.019,0,0,1-.548.9A179.954,179.954,0,0,0,3.931,157.141,10.913,10.913,0,0,0,0,165.582v15.5H110.03v-15.5A11.209,11.209,0,0,0,106.034,157.2Z"
        transform="translate(0 -66.702)" fill="#ffffff" />
</svg>