<svg width="20" height="22" viewBox="0 0 20 22" fill="none" xmlns="http://www.w3.org/2000/svg">
<path d="M0.240765 5.52437C0.240765 5.51511 0.240763 5.51511 0.250023 5.50585C0.417856 5.2208 0.657244 4.98455 0.944466 4.82053L9.09261 0.236246C9.36996 0.0813297 9.68234 0 10 0C10.3177 0 10.6301 0.0813297 10.9074 0.236246L19.0556 4.82053C19.3453 4.98532 19.5852 5.22529 19.75 5.51511H19.7593C19.7598 5.52225 19.7632 5.52889 19.7685 5.53364C19.9206 5.80859 20.0003 6.11773 20 6.43197V15.5635C19.9992 15.8929 19.9114 16.2162 19.7456 16.5008C19.5797 16.7854 19.3417 17.0211 19.0556 17.1842L10.9074 21.7685C10.651 21.9084 10.3659 21.9877 10.0741 22H9.91668C9.6283 21.9844 9.34692 21.9053 9.09261 21.7685L0.944466 17.1842C0.658325 17.0211 0.420303 16.7854 0.254467 16.5008C0.0886288 16.2162 0.0008564 15.8929 2.28882e-05 15.5635V6.43197C-0.00158501 6.11344 0.0814991 5.80021 0.240765 5.52437ZM10 2.2737L3.37039 6.00596L9.91668 9.71968L16.6111 5.98743L10 2.2737ZM17.7778 7.88597L11.0278 11.646L11.0926 19.1105L17.7778 15.3505V7.88597ZM8.87038 19.092L8.80557 11.646L2.22224 7.9045V15.3505L8.87038 19.092Z" fill="#2F1544"/>
</svg>
