<svg width="26" height="26" viewBox="0 0 26 26" fill="none" xmlns="http://www.w3.org/2000/svg">
<path d="M1.05811 0H10.4521C10.7325 0.000626733 11.0011 0.113571 11.1991 0.314025C11.2978 0.412795 11.3763 0.530229 11.43 0.659617C11.4837 0.789005 11.5117 0.927814 11.5123 1.06811V10.5081C11.5123 10.7914 11.4008 11.0631 11.2024 11.2634C11.0039 11.4637 10.7348 11.5762 10.4542 11.5762H1.05811C0.918564 11.5765 0.780343 11.5488 0.651409 11.4949C0.522475 11.4411 0.405376 11.3619 0.306853 11.2622L0.287807 11.2387C0.103339 11.0409 0.000424712 10.7797 0 10.5081L0 1.06811C0 0.784832 0.11148 0.513153 0.309915 0.312843C0.50835 0.112533 0.777485 0 1.05811 0V0ZM15.5522 14.4259H24.9419C25.2217 14.4287 25.4892 14.5421 25.687 14.7418C25.8849 14.9416 25.9972 15.2116 26 15.494V24.9298C26 25.213 25.8885 25.4847 25.6901 25.685C25.4916 25.8853 25.2225 25.9979 24.9419 25.9979H15.5522C15.2759 25.9973 15.0109 25.8876 14.8136 25.6924L14.7946 25.6689C14.6064 25.4715 14.5017 25.208 14.5025 24.934V15.4983C14.5023 15.3574 14.5296 15.2179 14.583 15.0878C14.6364 14.9576 14.7148 14.8394 14.8136 14.74L14.8348 14.7186C15.0311 14.5298 15.2916 14.4243 15.5628 14.4238L15.5522 14.4259ZM1.05811 14.4259H10.4521C10.7325 14.4266 11.0011 14.5395 11.1991 14.74C11.2986 14.8385 11.3776 14.9562 11.4314 15.0861C11.4852 15.216 11.5127 15.3554 11.5123 15.4962V24.9319C11.5123 25.2152 11.4008 25.4868 11.2024 25.6872C11.0039 25.8875 10.7348 26 10.4542 26H1.05811C0.918564 26.0003 0.780343 25.9726 0.651409 25.9187C0.522475 25.8648 0.405376 25.7857 0.306853 25.686L0.287807 25.6625C0.103839 25.4653 0.000961712 25.2049 0 24.934L0 15.4983C0 15.215 0.11148 14.9434 0.309915 14.743C0.50835 14.5427 0.777485 14.4302 1.05811 14.4302V14.4259ZM15.5522 0H24.9419C25.2225 0 25.4916 0.112533 25.6901 0.312843C25.8885 0.513153 26 0.784832 26 1.06811V10.5081C26 10.7914 25.8885 11.0631 25.6901 11.2634C25.4916 11.4637 25.2225 11.5762 24.9419 11.5762H15.5522C15.2715 11.5762 15.0024 11.4637 14.804 11.2634C14.6055 11.0631 14.4941 10.7914 14.4941 10.5081V1.06811C14.4955 0.927364 14.5244 0.788286 14.5793 0.658873C14.6341 0.52946 14.7138 0.412265 14.8136 0.314025L14.8348 0.294799C15.0284 0.108536 15.2847 0.00320592 15.5522 0V0Z" fill="#3A204D"/>
</svg>
