<svg width="30" height="26" viewBox="0 0 30 26" fill="none" xmlns="http://www.w3.org/2000/svg">
<path d="M8.74998 10.6786V15.3214C8.74998 16.0907 8.12039 16.7143 7.34373 16.7143H1.40625C0.62959 16.7143 0 16.0907 0 15.3214V10.6786C0 9.90931 0.62959 9.28571 1.40625 9.28571H7.34373C8.12039 9.28571 8.74998 9.90931 8.74998 10.6786ZM0 19.9643V24.6071C0 25.3764 0.62959 26 1.40625 26H7.34373C8.12039 26 8.74998 25.3764 8.74998 24.6071V19.9643C8.74998 19.195 8.12039 18.5714 7.34373 18.5714H1.40625C0.62959 18.5714 0 19.195 0 19.9643ZM7.34373 0H1.40625C0.62959 0 0 0.623594 0 1.39286V6.03571C0 6.80498 0.62959 7.42857 1.40625 7.42857H7.34373C8.12039 7.42857 8.74998 6.80498 8.74998 6.03571V1.39286C8.74998 0.623594 8.12039 0 7.34373 0ZM12.0312 26H28.5938C29.3704 26 30 25.3764 30 24.6071V19.9643C30 19.195 29.3704 18.5714 28.5938 18.5714H12.0312C11.2546 18.5714 10.625 19.195 10.625 19.9643V24.6071C10.625 25.3764 11.2546 26 12.0312 26ZM10.625 1.39286V6.03571C10.625 6.80498 11.2546 7.42857 12.0312 7.42857H28.5938C29.3704 7.42857 30 6.80498 30 6.03571V1.39286C30 0.623594 29.3704 0 28.5938 0H12.0312C11.2546 0 10.625 0.623594 10.625 1.39286ZM12.0312 16.7143H28.5938C29.3704 16.7143 30 16.0907 30 15.3214V10.6786C30 9.90931 29.3704 9.28571 28.5938 9.28571H12.0312C11.2546 9.28571 10.625 9.90931 10.625 10.6786V15.3214C10.625 16.0907 11.2546 16.7143 12.0312 16.7143Z" fill="#3A204D"/>
</svg>
