<svg width="52" height="60" viewBox="0 0 52 60" fill="none" xmlns="http://www.w3.org/2000/svg">
<path d="M47.1114 0.666626H4.88921C3.76941 0.666626 2.69547 1.05293 1.90365 1.74057C1.11183 2.4282 0.666992 3.36083 0.666992 4.33329V55.6666C0.666992 56.6391 1.11183 57.5717 1.90365 58.2593C2.69547 58.947 3.76941 59.3333 4.88921 59.3333H47.1114C48.2312 59.3333 49.3052 58.947 50.097 58.2593C50.8888 57.5717 51.3337 56.6391 51.3337 55.6666V4.33329C51.3337 3.36083 50.8888 2.4282 50.097 1.74057C49.3052 1.05293 48.2312 0.666626 47.1114 0.666626ZM15.4448 44.6666H11.2225V41H15.4448V44.6666ZM15.4448 37.3333H11.2225V33.6666H15.4448V37.3333ZM15.4448 30H11.2225V26.3333H15.4448V30ZM15.4448 22.6666H11.2225V19H15.4448V22.6666ZM15.4448 15.3333H11.2225V11.6666H15.4448V15.3333ZM40.7781 44.6666H19.667V41H40.7781V44.6666ZM40.7781 37.3333H19.667V33.6666H40.7781V37.3333ZM40.7781 30H19.667V26.3333H40.7781V30ZM40.7781 22.6666H19.667V19H40.7781V22.6666ZM40.7781 15.3333H19.667V11.6666H40.7781V15.3333Z" fill="#614873"/>
</svg>
