<svg width="50" height="55" viewBox="0 0 50 55" fill="none" xmlns="http://www.w3.org/2000/svg">
<path fill-rule="evenodd" clip-rule="evenodd" d="M25 54.8379C18.3696 54.8379 12.0107 51.9553 7.32233 46.8242C2.63392 41.693 0 34.7337 0 27.4772C0 20.2207 2.63392 13.2614 7.32233 8.13023C12.0107 2.9991 18.3696 0.116455 25 0.116455C31.6304 0.116455 37.9893 2.9991 42.6777 8.13023C47.3661 13.2614 50 20.2207 50 27.4772C50 34.7337 47.3661 41.693 42.6777 46.8242C37.9893 51.9553 31.6304 54.8379 25 54.8379ZM21.875 10.3767C24.0792 10.3764 26.2442 11.0139 28.1507 12.2247C30.0571 13.4355 31.6371 15.1764 32.7305 17.271C33.8239 19.3656 34.3917 21.7394 34.3765 24.1516C34.3613 26.5639 33.7635 28.9289 32.6438 31.0067L39.7094 38.7361C40.2958 39.3774 40.6253 40.2474 40.6256 41.1547C40.6258 41.6039 40.5451 42.0487 40.3881 42.4638C40.2312 42.8789 40.0011 43.2561 39.7109 43.5739C39.4208 43.8916 39.0763 44.1437 38.6971 44.3158C38.318 44.4878 37.9116 44.5765 37.5011 44.5766C36.6721 44.577 35.877 44.2169 35.2906 43.5756L28.225 35.8427C26.5692 36.9108 24.7107 37.5466 22.7939 37.7007C20.8772 37.8548 18.9537 37.5231 17.1731 36.7314C15.3925 35.9397 13.8027 34.7092 12.5272 33.1357C11.2517 31.5622 10.325 29.688 9.81901 27.6587C9.31301 25.6295 9.24139 23.4999 9.60971 21.4354C9.97803 19.371 10.7764 17.4273 11.9427 15.7554C13.109 14.0835 14.6118 12.7285 16.3345 11.7956C18.0571 10.8628 19.953 10.3772 21.875 10.3767Z" fill="white"/>
</svg>
