<svg width="50" height="55" viewBox="0 0 50 55" fill="none" xmlns="http://www.w3.org/2000/svg">
<path d="M25 0.116455C11.1929 0.116455 0 12.3663 0 27.4772C0 42.5881 11.1929 54.8379 25 54.8379C38.8071 54.8379 50 42.5881 50 27.4772C50 12.3663 38.8071 0.116455 25 0.116455ZM12.3993 11.676L16.8488 13.2057C17.4378 13.4174 17.8301 14.016 17.8985 14.6285L18.1488 17.3104L38.2965 19.7719C39.1616 19.9553 39.7695 20.8102 39.6484 21.689L38.3972 29.4042C38.238 30.2112 37.6273 30.7644 36.9476 30.7735H19.0491L18.6981 32.9612H35.6964C36.5853 32.9954 37.2363 33.7362 37.2467 34.6011C37.2098 35.5878 36.4832 36.2337 35.6964 36.2444H16.8976C15.9494 36.1585 15.2533 35.3362 15.3992 34.3306L16.1987 29.5144L14.9475 16.0513L11.499 14.8489C11.099 14.703 10.7987 14.4285 10.5988 14.0272C10.2203 13.1594 10.5738 12.1985 11.2488 11.7828C11.634 11.5636 12.0103 11.5363 12.3993 11.676ZM19.1742 37.1897C20.4686 37.1897 21.518 38.3381 21.518 39.7548C21.518 41.1714 20.4686 42.3199 19.1742 42.3199C17.8799 42.3199 16.8305 41.1714 16.8305 39.7548C16.8305 38.3381 17.8798 37.1897 19.1742 37.1897ZM32.9315 37.1897C34.2259 37.1897 35.2753 38.3381 35.2753 39.7548C35.2753 41.1714 34.2259 42.3199 32.9315 42.3199C31.6371 42.3199 30.5878 41.1714 30.5878 39.7548C30.5878 38.3381 31.6371 37.1897 32.9315 37.1897Z" fill="white"/>
</svg>
